<?xml version="1.0" standalone="no"?><!DOCTYPE svg PUBLIC "-//W3C//DTD SVG 1.1//EN"
    "http://www.w3.org/Graphics/SVG/1.1/DTD/svg11.dtd">
<svg t="1592192244422" class="icon" viewBox="0 0 1024 1024" version="1.1" xmlns="http://www.w3.org/2000/svg" p-id="3752"
     xmlns:xlink="http://www.w3.org/1999/xlink" width="200" height="200">
    <defs>
        <style type="text/css"></style>
    </defs>
    <path
        d="M825.949091 552.96a23.272727 23.272727 0 0 1 23.272727 23.272727v139.636364a23.272727 23.272727 0 0 1-23.272727 23.272727h-628.363636a23.272727 23.272727 0 0 1-23.272728-23.272727v-139.636364a23.272727 23.272727 0 0 1 23.272728-23.272727h628.363636m0-23.272727h-628.363636a46.545455 46.545455 0 0 0-46.545455 46.545454v139.636364a46.545455 46.545455 0 0 0 46.545455 46.545454h628.363636a46.545455 46.545455 0 0 0 46.545454-46.545454v-139.636364a46.545455 46.545455 0 0 0-46.545454-46.545454z"
        fill="#468efd" p-id="3753"></path>
    <path
        d="M327.68 547.141818a17.454545 17.454545 0 0 1-17.454545-17.454545v-97.047273a17.454545 17.454545 0 0 1 34.90909 0v97.047273a17.687273 17.687273 0 0 1-17.454545 17.454545z"
        fill="#468efd" p-id="3754"></path>
    <path
        d="M327.68 541.323636a11.636364 11.636364 0 0 1-11.636364-11.636363v-325.818182a11.636364 11.636364 0 0 1 11.636364-11.636364 11.636364 11.636364 0 0 1 11.636364 11.636364v325.818182a11.869091 11.869091 0 0 1-11.636364 11.636363zM696.32 547.141818a17.687273 17.687273 0 0 1-17.454545-17.454545v-97.047273a17.454545 17.454545 0 0 1 34.90909 0v97.047273a17.454545 17.454545 0 0 1-17.454545 17.454545z"
        fill="#468efd" p-id="3755"></path>
    <path
        d="M696.32 541.323636a11.869091 11.869091 0 0 1-11.636364-11.636363v-325.818182a11.636364 11.636364 0 0 1 11.636364-11.636364 11.636364 11.636364 0 0 1 11.636364 11.636364v325.818182a11.636364 11.636364 0 0 1-11.636364 11.636363zM327.68 635.578182a8.610909 8.610909 0 0 1 0 16.989091 8.610909 8.610909 0 1 1 0-16.989091m0-23.272727a31.883636 31.883636 0 1 0 31.650909 31.650909 31.650909 31.650909 0 0 0-31.650909-31.650909zM696.785455 623.243636a21.178182 21.178182 0 1 0 21.178181 21.178182 21.178182 21.178182 0 0 0-21.178181-21.178182zM620.218182 623.476364a21.410909 21.410909 0 1 0 21.178182 21.410909 21.410909 21.410909 0 0 0-21.178182-21.410909zM543.883636 623.476364a21.410909 21.410909 0 1 0 21.178182 21.410909 21.178182 21.178182 0 0 0-21.178182-21.410909z"
        fill="#468efd" p-id="3756"></path>
</svg>