<?xml version="1.0" standalone="no"?><!DOCTYPE svg PUBLIC "-//W3C//DTD SVG 1.1//EN"
    "http://www.w3.org/Graphics/SVG/1.1/DTD/svg11.dtd">
<svg t="1592140875663" class="icon" viewBox="0 0 1024 1024" version="1.1" xmlns="http://www.w3.org/2000/svg" p-id="1405"
     xmlns:xlink="http://www.w3.org/1999/xlink" width="95" height="95">
    <defs>
        <style type="text/css"></style>
    </defs>
    <path
        d="M404.580392 553.662745c-5.019608-12.88366-7.864052-26.938562-7.864052-41.662745 0-35.304575 15.895425-66.928105 40.993464-88.010458-9.369935-24.261438-14.556863-53.542484-15.728105-66.258823-7.194771-83.827451-54.211765-135.194771-125.824836-137.369935-48.020915-1.171242-90.687582 28.611765-117.626144 80.313726-33.464052 64.25098-31.95817 142.389542 3.681046 190.075817 49.694118 66.426144 162.133333 67.597386 222.368627 62.912418zM512 396.71634c35.639216 0 67.597386 16.230065 88.679739 41.662745 24.094118-10.541176 53.542484-17.066667 65.589542-18.572549 83.49281-10.875817 132.684967-60.067974 131.848366-131.681046-0.501961-46.682353-32.29281-89.34902-84.998693-113.945098-65.422222-30.619608-143.560784-25.934641-189.741176 11.712418-62.075817 50.865359-60.402614 159.79085-54.044445 219.022223 13.218301-5.186928 27.607843-8.198693 42.666667-8.198693zM836.266667 525.218301c-50.196078-59.566013-153.265359-58.394771-215.508497-51.2 4.183007 11.879739 6.52549 24.763399 6.52549 37.981699 0 36.810458-17.233987 69.605229-44.172549 90.687582 11.545098 23.424837 19.07451 53.877124 21.416994 69.103268 12.214379 83.32549 60.904575 131.848366 133.688888 129.840523 46.682353-1.171242 88.847059-33.798693 112.773857-87.006536 29.615686-66.091503 23.592157-143.895425-14.724183-189.406536zM512 627.28366c-37.145098 0-70.27451-17.568627-91.356863-45.00915-23.926797 12.88366-55.717647 21.751634-68.768627 24.261438-82.656209 15.226144-129.505882 66.928105-124.988235 138.541176 3.011765 46.515033 36.977778 87.341176 91.022222 109.260131 25.934641 10.373856 53.542484 15.560784 80.146405 15.560784 41.997386 0 81.819608-12.88366 108.75817-37.479738 55.215686-50.028758 53.542484-145.233987 43.837908-211.827451-12.047059 4.350327-25.098039 6.69281-38.65098 6.69281z"
        p-id="1406" fill="#468efd"></path>
    <path
        d="M512 405.751634c-58.729412 0-106.248366 47.518954-106.248366 106.248366s47.518954 106.248366 106.248366 106.248366 106.248366-47.518954 106.248366-106.248366-47.518954-106.248366-106.248366-106.248366z m0 193.422222c-48.188235 0-87.173856-38.985621-87.173856-87.173856s38.985621-87.173856 87.173856-87.173856 87.173856 38.985621 87.173856 87.173856-38.985621 87.173856-87.173856 87.173856z"
        p-id="1407" fill="#468efd"></path>
    <path d="M512 512m-43.335948 0a43.335948 43.335948 0 1 0 86.671896 0 43.335948 43.335948 0 1 0-86.671896 0Z"
          p-id="1408" fill="#468efd"></path>
    <path
        d="M512 64.920261C265.035294 64.920261 64.920261 265.035294 64.920261 512S265.035294 959.079739 512 959.079739 959.079739 758.964706 959.079739 512 758.964706 64.920261 512 64.920261z m0 886.797386C269.218301 951.717647 72.282353 754.781699 72.282353 512S269.218301 72.282353 512 72.282353 951.717647 269.218301 951.717647 512 754.781699 951.717647 512 951.717647z"
        p-id="1409" fill="#468efd"></path>
</svg>