<?xml version="1.0" standalone="no"?><!DOCTYPE svg PUBLIC "-//W3C//DTD SVG 1.1//EN"
    "http://www.w3.org/Graphics/SVG/1.1/DTD/svg11.dtd">
<svg t="1592192257422" class="icon" viewBox="0 0 2228 1024" version="1.1" xmlns="http://www.w3.org/2000/svg" p-id="3964"
     xmlns:xlink="http://www.w3.org/1999/xlink" width="160" height="160">
    <defs>
        <style type="text/css"></style>
    </defs>
    <path
        d="M304.188235 903.529412h120.470589v60.235294a60.235294 60.235294 0 0 1-120.470589 0v-60.235294zM1809.468235 903.529412h120.470589v60.235294a60.235294 60.235294 0 1 1-120.470589 0v-60.235294z"
        fill="#468efd" p-id="3965"></path>
    <path
        d="M300.513882 361.411765v180.705882h843.294118V361.411765h-843.294118z m0-60.235294h843.294118a60.235294 60.235294 0 0 1 60.235294 60.235294v180.705882a60.235294 60.235294 0 0 1-60.235294 60.235294h-843.294118a60.235294 60.235294 0 0 1-60.235294-60.235294V361.411765a60.235294 60.235294 0 0 1 60.235294-60.235294z"
        fill="#468efd" p-id="3966"></path>
    <path
        d="M1535.457882 451.764706m-90.352941 0a90.352941 90.352941 0 1 0 180.705883 0 90.352941 90.352941 0 1 0-180.705883 0Z"
        fill="#468efd" p-id="3967"></path>
    <path
        d="M1899.760941 451.764706m-90.352941 0a90.352941 90.352941 0 1 0 180.705882 0 90.352941 90.352941 0 1 0-180.705882 0Z"
        fill="#468efd" p-id="3968"></path>
    <path
        d="M120.470588 60.235294a60.235294 60.235294 0 0 0-60.235294 60.235294v662.588236a60.235294 60.235294 0 0 0 60.235294 60.235294h1987.764706a60.235294 60.235294 0 0 0 60.235294-60.235294V120.470588a60.235294 60.235294 0 0 0-60.235294-60.235294H120.470588z m0-60.235294h1987.764706a120.470588 120.470588 0 0 1 120.470588 120.470588v662.588236a120.470588 120.470588 0 0 1-120.470588 120.470588H120.470588a120.470588 120.470588 0 0 1-120.470588-120.470588V120.470588a120.470588 120.470588 0 0 1 120.470588-120.470588z"
        fill="#468efd" p-id="3969"></path>
</svg>