<svg id="svg" version="1.1" xmlns="http://www.w3.org/2000/svg" xmlns:xlink="http://www.w3.org/1999/xlink" width="200"
     height="51.32787292132043" viewBox="0, 0, 400,73.27202610501335">
    <g id="svgg">
        <path id="path0"
              d="M8.585 3.042 C 8.470 3.526,8.037 5.942,7.815 7.333 C 7.719 7.929,7.582 8.792,7.508 9.250 C 7.303 10.535,6.686 14.108,6.428 15.500 C 6.301 16.188,6.107 17.313,5.999 18.000 C 5.890 18.688,5.702 19.775,5.581 20.417 C 5.460 21.058,5.273 22.146,5.167 22.833 C 5.060 23.521,4.874 24.608,4.753 25.250 C 4.632 25.892,4.446 26.979,4.340 27.667 C 4.234 28.354,4.044 29.479,3.918 30.167 C 3.791 30.854,3.603 31.942,3.499 32.583 C 3.395 33.225,3.207 34.313,3.082 35.000 C 2.957 35.688,2.772 36.775,2.671 37.417 C 2.422 38.994,2.195 40.338,1.923 41.833 C 1.799 42.521,1.607 43.646,1.499 44.333 C 1.390 45.021,1.202 46.108,1.081 46.750 C 0.960 47.392,0.774 48.479,0.667 49.167 C 0.561 49.854,0.367 50.932,0.237 51.562 C -2.058 62.661,7.221 70.720,24.833 72.924 C 27.014 73.197,33.529 73.251,35.083 73.008 C 35.633 72.923,36.496 72.811,37.000 72.759 C 37.903 72.668,39.030 72.474,40.500 72.156 C 40.912 72.067,41.438 71.960,41.667 71.919 C 41.896 71.878,42.421 71.763,42.833 71.663 C 54.995 68.721,63.423 63.427,66.660 56.696 C 67.254 55.461,68.000 53.251,68.000 52.726 C 68.000 52.524,68.072 51.997,68.160 51.554 C 68.450 50.090,68.801 48.101,68.992 46.833 C 69.096 46.146,69.284 45.058,69.411 44.417 C 69.537 43.775,69.726 42.650,69.831 41.917 C 69.936 41.183,70.087 40.283,70.166 39.917 C 70.245 39.550,70.429 38.500,70.574 37.583 C 70.719 36.667,70.942 35.354,71.071 34.667 C 71.199 33.979,71.393 32.854,71.501 32.167 C 71.610 31.479,71.797 30.392,71.917 29.750 C 72.144 28.533,72.311 27.543,72.757 24.750 C 72.903 23.833,73.088 22.783,73.167 22.417 C 73.246 22.050,73.398 21.150,73.503 20.417 C 73.609 19.683,73.795 18.558,73.917 17.917 C 74.039 17.275,74.228 16.188,74.336 15.500 C 74.444 14.813,74.632 13.725,74.753 13.083 C 74.874 12.442,75.061 11.354,75.169 10.667 C 75.278 9.979,75.465 8.892,75.586 8.250 C 75.707 7.608,75.893 6.521,75.999 5.833 C 76.106 5.146,76.262 4.269,76.346 3.885 C 76.431 3.500,76.500 3.069,76.500 2.926 C 76.500 2.694,75.365 2.667,65.693 2.667 L 54.887 2.667 54.673 3.875 C 54.555 4.540,54.429 5.271,54.392 5.500 C 54.355 5.729,54.255 6.292,54.168 6.750 C 54.082 7.208,53.892 8.296,53.745 9.167 C 53.598 10.037,53.413 11.088,53.334 11.500 C 53.256 11.912,53.106 12.850,53.001 13.583 C 52.897 14.317,52.746 15.217,52.667 15.583 C 52.588 15.950,52.404 17.000,52.259 17.917 C 52.114 18.833,51.891 20.146,51.763 20.833 C 51.635 21.521,51.442 22.646,51.335 23.333 C 51.227 24.021,51.040 25.108,50.919 25.750 C 50.798 26.392,50.611 27.479,50.503 28.167 C 50.394 28.854,50.207 29.942,50.086 30.583 C 49.965 31.225,49.780 32.313,49.676 33.000 C 49.571 33.688,49.383 34.775,49.258 35.417 C 49.133 36.058,48.944 37.146,48.839 37.833 C 48.733 38.521,48.543 39.646,48.416 40.333 C 48.289 41.021,48.098 42.146,47.992 42.833 C 47.420 46.542,46.468 49.600,45.658 50.333 C 45.607 50.379,45.403 50.679,45.203 51.000 C 43.961 53.000,39.924 55.898,37.500 56.530 C 33.950 57.455,32.030 57.465,29.367 56.572 C 25.839 55.389,23.273 52.289,22.866 48.721 C 22.731 47.533,22.933 45.117,23.303 43.500 C 23.397 43.087,23.558 42.188,23.661 41.500 C 23.764 40.813,23.950 39.725,24.075 39.083 C 24.200 38.442,24.389 37.354,24.495 36.667 C 24.600 35.979,24.790 34.854,24.918 34.167 C 25.045 33.479,25.234 32.354,25.338 31.667 C 25.442 30.979,25.629 29.892,25.753 29.250 C 25.878 28.608,26.066 27.521,26.172 26.833 C 26.279 26.146,26.465 25.058,26.586 24.417 C 26.707 23.775,26.894 22.688,27.002 22.000 C 27.110 21.313,27.299 20.188,27.421 19.500 C 27.543 18.813,27.731 17.725,27.840 17.083 C 27.948 16.442,28.142 15.317,28.271 14.583 C 28.603 12.696,28.784 11.601,29.002 10.167 C 29.107 9.479,29.261 8.605,29.345 8.224 C 29.428 7.843,29.573 7.037,29.665 6.432 C 29.758 5.828,29.906 4.857,29.996 4.274 C 30.085 3.692,30.206 3.092,30.264 2.941 C 30.361 2.688,29.524 2.667,19.521 2.667 L 8.673 2.667 8.585 3.042 M172.011 3.875 C 171.895 4.540,171.700 5.646,171.577 6.333 C 171.454 7.021,171.267 8.146,171.161 8.833 C 171.054 9.521,170.866 10.608,170.742 11.250 C 170.617 11.892,170.431 12.979,170.328 13.667 C 170.225 14.354,170.077 15.217,169.999 15.583 C 169.920 15.950,169.737 17.000,169.592 17.917 C 169.241 20.130,169.072 21.137,168.764 22.833 C 168.622 23.613,168.388 25.000,168.242 25.917 C 168.096 26.833,167.912 27.883,167.833 28.250 C 167.754 28.617,167.603 29.517,167.498 30.250 C 167.393 30.983,167.203 32.108,167.077 32.750 C 166.951 33.392,166.762 34.479,166.658 35.167 C 166.553 35.854,166.368 36.942,166.247 37.583 C 166.126 38.225,165.940 39.313,165.834 40.000 C 165.728 40.688,165.572 41.562,165.489 41.943 C 165.405 42.324,165.258 43.149,165.162 43.776 C 164.957 45.120,164.776 46.203,164.414 48.250 C 164.269 49.075,164.081 50.163,163.998 50.667 C 163.851 51.558,163.379 54.344,162.684 58.417 C 162.496 59.517,162.258 60.942,162.155 61.583 C 162.052 62.225,161.868 63.275,161.747 63.917 C 161.626 64.558,161.440 65.646,161.333 66.333 C 161.227 67.021,161.040 68.108,160.919 68.750 C 160.798 69.392,160.611 70.479,160.503 71.167 C 160.394 71.854,160.273 72.585,160.233 72.792 L 160.160 73.167 169.307 73.167 L 178.454 73.167 178.638 72.208 C 178.738 71.681,178.904 70.725,179.006 70.083 C 179.107 69.442,179.294 68.354,179.420 67.667 C 179.546 66.979,179.735 65.854,179.841 65.167 C 179.946 64.479,180.134 63.392,180.258 62.750 C 180.383 62.108,180.569 61.021,180.672 60.333 C 180.776 59.646,180.961 58.558,181.084 57.917 C 181.208 57.275,181.393 56.225,181.496 55.583 C 181.599 54.942,181.762 53.929,181.858 53.333 C 181.953 52.737,182.130 51.725,182.251 51.083 C 182.372 50.442,182.558 49.317,182.664 48.583 C 182.770 47.850,182.959 46.762,183.083 46.167 C 183.208 45.571,183.396 44.483,183.502 43.750 C 183.607 43.017,183.797 41.892,183.923 41.250 C 184.049 40.608,184.238 39.521,184.342 38.833 C 184.447 38.146,184.632 37.058,184.753 36.417 C 184.874 35.775,185.061 34.688,185.169 34.000 C 185.278 33.313,185.465 32.225,185.586 31.583 C 185.707 30.942,185.890 29.854,185.994 29.167 C 186.097 28.479,186.284 27.392,186.409 26.750 C 186.534 26.108,186.722 25.021,186.828 24.333 C 186.933 23.646,187.124 22.521,187.251 21.833 C 187.378 21.146,187.568 20.021,187.674 19.333 C 187.779 18.646,187.967 17.558,188.092 16.917 C 188.216 16.275,188.402 15.188,188.505 14.500 C 188.608 13.813,188.756 12.950,188.835 12.583 C 188.913 12.217,189.097 11.167,189.243 10.250 C 189.699 7.395,189.858 6.455,190.086 5.250 C 190.208 4.608,190.351 3.765,190.406 3.375 L 190.504 2.667 181.362 2.667 L 172.220 2.667 172.011 3.875 M80.934 24.375 C 80.869 24.618,80.435 27.066,80.160 28.750 C 80.054 29.392,79.870 30.442,79.751 31.083 C 79.631 31.725,79.443 32.813,79.334 33.500 C 79.224 34.188,79.034 35.313,78.911 36.000 C 78.788 36.688,78.600 37.813,78.494 38.500 C 78.388 39.188,78.202 40.275,78.081 40.917 C 77.960 41.558,77.773 42.646,77.667 43.333 C 77.560 44.021,77.374 45.108,77.253 45.750 C 77.132 46.392,76.944 47.479,76.836 48.167 C 76.727 48.854,76.568 49.754,76.481 50.167 C 76.395 50.579,76.289 51.217,76.245 51.583 C 76.201 51.950,76.092 52.625,76.004 53.083 C 75.915 53.542,75.726 54.592,75.584 55.417 C 75.442 56.242,75.254 57.329,75.167 57.833 C 75.080 58.337,74.926 59.313,74.825 60.000 C 74.724 60.688,74.577 61.550,74.499 61.917 C 74.420 62.283,74.238 63.333,74.093 64.250 C 73.948 65.167,73.724 66.479,73.596 67.167 C 73.468 67.854,73.275 68.979,73.167 69.667 C 72.965 70.957,72.698 72.364,72.557 72.876 C 72.481 73.154,72.968 73.167,81.697 73.126 L 90.917 73.083 91.018 72.333 C 91.127 71.525,91.696 68.196,92.072 66.167 C 92.199 65.479,92.393 64.354,92.501 63.667 C 92.610 62.979,92.798 61.892,92.919 61.250 C 93.040 60.608,93.228 59.521,93.336 58.833 C 93.444 58.146,93.639 56.983,93.769 56.250 C 94.139 54.167,94.306 53.176,94.501 51.917 C 94.600 51.275,94.795 50.112,94.934 49.333 C 95.074 48.554,95.266 47.467,95.362 46.917 C 96.662 39.453,102.357 33.069,106.050 34.936 C 109.534 36.698,110.775 41.714,109.426 48.583 C 109.300 49.225,109.112 50.313,109.008 51.000 C 108.904 51.688,108.716 52.775,108.591 53.417 C 108.466 54.058,108.278 55.146,108.172 55.833 C 108.067 56.521,107.876 57.646,107.749 58.333 C 107.622 59.021,107.433 60.146,107.329 60.833 C 107.226 61.521,107.077 62.383,106.999 62.750 C 106.920 63.117,106.738 64.167,106.594 65.083 C 106.449 66.000,106.255 67.125,106.163 67.583 C 106.071 68.042,105.957 68.717,105.911 69.083 C 105.865 69.450,105.793 69.862,105.751 70.000 C 105.708 70.137,105.599 70.783,105.508 71.434 C 105.416 72.086,105.294 72.742,105.236 72.893 C 105.139 73.145,105.861 73.167,114.312 73.167 L 123.494 73.167 123.571 72.792 C 123.847 71.442,123.999 70.589,124.169 69.417 C 124.275 68.683,124.461 67.558,124.582 66.917 C 124.703 66.275,124.880 65.262,124.976 64.667 C 125.072 64.071,125.269 62.908,125.414 62.083 C 125.559 61.258,125.758 60.096,125.855 59.500 C 125.952 58.904,126.130 57.892,126.249 57.250 C 126.369 56.608,126.556 55.521,126.664 54.833 C 126.772 54.146,126.960 53.058,127.081 52.417 C 127.202 51.775,127.387 50.688,127.494 50.000 C 127.600 49.313,127.790 48.188,127.918 47.500 C 128.045 46.813,128.234 45.688,128.337 45.000 C 128.441 44.313,128.591 43.450,128.670 43.083 C 130.746 33.534,126.198 25.987,117.417 24.407 C 111.795 23.396,103.891 26.070,98.968 30.650 C 97.900 31.644,97.845 31.597,98.230 30.024 C 98.356 29.507,98.552 28.408,98.665 27.583 C 98.779 26.758,98.937 25.821,99.018 25.500 C 99.099 25.179,99.165 24.748,99.166 24.542 L 99.167 24.167 90.078 24.167 C 82.948 24.167,80.978 24.212,80.934 24.375 M141.167 24.237 C 141.167 24.275,140.974 25.419,140.738 26.778 C 140.503 28.138,140.248 29.700,140.172 30.250 C 140.096 30.800,139.957 31.587,139.863 32.000 C 139.769 32.412,139.608 33.313,139.505 34.000 C 139.402 34.688,139.216 35.775,139.092 36.417 C 138.968 37.058,138.776 38.146,138.667 38.833 C 138.557 39.521,138.366 40.608,138.243 41.250 C 138.120 41.892,137.936 42.942,137.834 43.583 C 137.731 44.225,137.547 45.275,137.423 45.917 C 137.299 46.558,137.109 47.646,137.002 48.333 C 136.894 49.021,136.707 50.108,136.586 50.750 C 136.465 51.392,136.278 52.479,136.170 53.167 C 136.062 53.854,135.910 54.717,135.832 55.083 C 135.754 55.450,135.572 56.500,135.427 57.417 C 135.283 58.333,135.089 59.458,134.997 59.917 C 134.905 60.375,134.676 61.650,134.489 62.750 C 134.302 63.850,134.036 65.387,133.899 66.167 C 133.626 67.716,133.438 68.839,133.172 70.500 C 133.077 71.096,132.926 71.883,132.837 72.250 C 132.748 72.617,132.673 72.973,132.671 73.042 C 132.668 73.110,136.790 73.167,141.830 73.167 L 150.994 73.167 151.071 72.792 C 151.114 72.585,151.181 72.192,151.220 71.917 C 151.281 71.495,151.889 68.023,152.519 64.500 C 152.743 63.250,152.955 61.969,153.162 60.609 C 153.258 59.982,153.405 59.157,153.489 58.776 C 153.572 58.395,153.728 57.521,153.834 56.833 C 153.940 56.146,154.128 55.096,154.250 54.500 C 154.372 53.904,154.557 52.854,154.660 52.167 C 154.763 51.479,154.950 50.392,155.075 49.750 C 155.200 49.108,155.391 48.021,155.498 47.333 C 155.606 46.646,155.793 45.558,155.914 44.917 C 156.035 44.275,156.224 43.188,156.333 42.500 C 156.443 41.813,156.632 40.725,156.754 40.083 C 156.962 38.989,157.100 38.208,157.496 35.875 C 157.846 33.815,158.188 31.862,158.407 30.667 C 158.534 29.979,158.726 28.854,158.834 28.167 C 158.942 27.479,159.137 26.414,159.266 25.800 C 159.394 25.187,159.500 24.568,159.500 24.425 C 159.500 24.195,158.508 24.167,150.333 24.167 C 145.292 24.167,141.167 24.198,141.167 24.237 M194.833 24.571 C 194.833 24.793,194.762 25.337,194.675 25.779 C 194.215 28.120,194.126 28.602,193.980 29.550 C 193.788 30.801,193.599 31.931,193.248 33.917 C 193.102 34.742,192.917 35.829,192.837 36.333 C 192.757 36.837,192.457 38.600,192.170 40.250 C 191.883 41.900,191.464 44.375,191.239 45.750 C 191.014 47.125,190.725 48.813,190.597 49.500 C 190.468 50.188,190.276 51.313,190.168 52.000 C 190.061 52.688,189.865 53.775,189.731 54.417 C 188.939 58.224,189.346 62.857,190.726 65.750 C 191.559 67.496,194.058 70.333,195.043 70.650 C 195.157 70.687,195.289 70.776,195.337 70.849 C 195.636 71.302,198.981 72.652,200.633 72.988 C 206.156 74.108,215.244 71.104,219.519 66.746 C 220.579 65.666,220.563 65.658,220.264 67.099 C 220.133 67.732,219.938 68.813,219.831 69.500 C 219.724 70.188,219.530 71.252,219.401 71.866 C 219.272 72.480,219.167 73.024,219.167 73.075 C 219.167 73.125,223.290 73.167,228.330 73.167 L 237.494 73.167 237.571 72.792 C 237.614 72.585,237.680 72.192,237.719 71.917 C 237.806 71.302,238.423 67.724,238.754 65.917 C 238.888 65.183,239.117 63.834,239.263 62.919 C 239.409 62.004,239.555 61.213,239.587 61.162 C 239.618 61.110,239.691 60.659,239.748 60.159 C 239.804 59.659,239.916 58.950,239.996 58.583 C 240.076 58.217,240.225 57.354,240.328 56.667 C 240.430 55.979,240.618 54.892,240.744 54.250 C 240.870 53.608,241.059 52.483,241.164 51.750 C 241.269 51.017,241.420 50.117,241.500 49.750 C 241.579 49.383,241.762 48.333,241.907 47.417 C 242.052 46.500,242.276 45.188,242.404 44.500 C 242.532 43.813,242.726 42.688,242.835 42.000 C 242.944 41.313,243.132 40.225,243.253 39.583 C 243.374 38.942,243.560 37.854,243.667 37.167 C 243.773 36.479,243.960 35.392,244.081 34.750 C 244.202 34.108,244.390 33.021,244.500 32.333 C 244.609 31.646,244.799 30.521,244.921 29.833 C 245.043 29.146,245.228 28.058,245.331 27.417 C 245.435 26.775,245.591 25.888,245.677 25.446 C 245.763 25.003,245.833 24.534,245.833 24.404 C 245.833 24.202,244.485 24.167,236.667 24.167 L 227.500 24.167 227.500 24.592 C 227.500 24.826,227.394 25.520,227.266 26.134 C 227.137 26.748,226.946 27.813,226.842 28.500 C 226.737 29.188,226.549 30.275,226.423 30.917 C 226.297 31.558,226.107 32.683,226.002 33.417 C 225.896 34.150,225.708 35.237,225.583 35.833 C 225.459 36.429,225.272 37.517,225.167 38.250 C 225.063 38.983,224.913 39.883,224.834 40.250 C 224.755 40.617,224.571 41.667,224.426 42.583 C 224.281 43.500,224.055 44.813,223.923 45.500 C 223.792 46.188,223.600 47.313,223.498 48.000 C 222.689 53.414,221.118 57.327,218.652 60.067 C 212.993 66.354,207.117 60.684,208.737 50.500 C 209.004 48.826,209.573 45.491,209.932 43.500 C 210.180 42.124,210.282 41.522,210.676 39.083 C 210.780 38.442,210.964 37.392,211.085 36.750 C 211.206 36.108,211.391 34.983,211.497 34.250 C 211.602 33.517,211.754 32.617,211.833 32.250 C 211.912 31.883,212.096 30.833,212.241 29.917 C 212.386 29.000,212.611 27.688,212.742 27.000 C 212.873 26.313,213.026 25.394,213.083 24.958 L 213.187 24.167 204.010 24.167 L 194.833 24.167 194.833 24.571 M253.923 24.375 C 253.886 24.490,253.824 24.846,253.785 25.167 C 253.702 25.843,253.101 29.346,252.755 31.167 C 252.625 31.854,252.432 32.979,252.328 33.667 C 252.224 34.354,252.068 35.254,251.982 35.667 C 251.895 36.079,251.789 36.717,251.745 37.083 C 251.701 37.450,251.593 38.125,251.506 38.583 C 251.336 39.476,250.940 41.737,250.645 43.500 C 250.545 44.096,250.365 45.146,250.244 45.833 C 250.035 47.020,249.825 48.278,249.494 50.333 C 249.412 50.837,249.229 51.925,249.086 52.750 C 248.943 53.575,248.749 54.700,248.655 55.250 C 248.560 55.800,248.381 56.813,248.257 57.500 C 248.132 58.188,247.941 59.313,247.832 60.000 C 247.723 60.688,247.535 61.775,247.414 62.417 C 247.293 63.058,247.107 64.146,247.000 64.833 C 246.893 65.521,246.707 66.608,246.586 67.250 C 246.465 67.892,246.280 68.979,246.174 69.667 C 246.068 70.354,245.882 71.423,245.760 72.042 L 245.539 73.167 252.520 73.167 L 259.500 73.167 259.500 72.687 C 259.500 72.423,259.607 71.692,259.737 71.062 C 259.867 70.432,260.062 69.354,260.170 68.667 C 260.278 67.979,260.464 66.892,260.584 66.250 C 260.704 65.608,260.880 64.596,260.976 64.000 C 261.072 63.404,261.268 62.242,261.412 61.417 C 261.917 58.524,261.993 58.073,262.176 56.833 C 262.277 56.146,262.461 55.096,262.585 54.500 C 262.709 53.904,262.897 52.817,263.003 52.083 C 263.109 51.350,263.295 50.225,263.417 49.583 C 263.539 48.942,263.727 47.854,263.833 47.167 C 264.451 43.187,264.894 42.102,266.589 40.418 C 270.267 36.765,275.312 39.844,274.182 45.051 C 273.978 45.991,273.623 47.984,273.568 48.500 C 273.544 48.729,273.446 49.329,273.352 49.833 C 273.192 50.683,272.882 52.446,272.502 54.667 C 272.416 55.171,272.229 56.258,272.086 57.083 C 271.943 57.908,271.754 58.996,271.667 59.500 C 271.580 60.004,271.426 60.979,271.325 61.667 C 271.224 62.354,271.077 63.217,270.999 63.583 C 270.920 63.950,270.738 65.000,270.593 65.917 C 270.448 66.833,270.224 68.146,270.096 68.833 C 269.968 69.521,269.775 70.646,269.668 71.333 C 269.561 72.021,269.449 72.715,269.419 72.875 C 269.368 73.149,269.783 73.167,276.254 73.167 L 283.143 73.167 283.325 72.208 C 283.595 70.782,283.803 69.563,284.012 68.167 C 284.115 67.479,284.298 66.392,284.419 65.750 C 284.540 65.108,284.728 64.021,284.836 63.333 C 284.944 62.646,285.132 61.558,285.253 60.917 C 285.374 60.275,285.561 59.188,285.669 58.500 C 285.777 57.813,285.972 56.650,286.102 55.917 C 286.232 55.183,286.416 54.133,286.511 53.583 C 286.606 53.033,286.785 52.021,286.910 51.333 C 287.035 50.646,287.222 49.521,287.327 48.833 C 287.527 47.522,287.891 45.533,288.208 44.021 C 288.918 40.642,292.709 38.041,295.418 39.075 C 297.267 39.781,298.439 42.162,298.028 44.375 C 297.938 44.856,297.780 45.813,297.675 46.500 C 297.571 47.188,297.383 48.275,297.258 48.917 C 297.133 49.558,296.944 50.646,296.839 51.333 C 296.733 52.021,296.543 53.146,296.416 53.833 C 296.289 54.521,296.100 55.646,295.996 56.333 C 295.893 57.021,295.744 57.883,295.665 58.250 C 295.587 58.617,295.405 59.667,295.260 60.583 C 295.116 61.500,294.922 62.625,294.830 63.083 C 294.737 63.542,294.625 64.217,294.580 64.583 C 294.535 64.950,294.426 65.625,294.337 66.083 C 294.248 66.542,294.060 67.592,293.919 68.417 C 293.778 69.242,293.593 70.292,293.509 70.750 C 293.425 71.208,293.309 71.940,293.251 72.377 L 293.146 73.170 300.029 73.127 L 306.913 73.083 307.109 72.083 C 307.216 71.533,307.392 70.521,307.500 69.833 C 307.608 69.146,307.801 68.021,307.929 67.333 C 308.058 66.646,308.281 65.333,308.426 64.417 C 308.571 63.500,308.754 62.450,308.832 62.083 C 308.910 61.717,309.058 60.854,309.161 60.167 C 309.264 59.479,309.451 58.392,309.577 57.750 C 309.703 57.108,309.893 55.983,309.998 55.250 C 310.103 54.517,310.254 53.617,310.333 53.250 C 310.412 52.883,310.596 51.833,310.741 50.917 C 310.886 50.000,311.109 48.688,311.237 48.000 C 311.365 47.313,311.559 46.188,311.668 45.500 C 311.777 44.813,311.965 43.725,312.086 43.083 C 312.207 42.442,312.394 41.354,312.501 40.667 C 312.609 39.979,312.765 39.057,312.848 38.617 C 315.097 26.762,304.468 20.200,293.898 26.917 C 292.731 27.659,290.215 30.150,289.510 31.261 C 289.207 31.740,288.982 31.959,288.940 31.817 C 286.317 22.995,274.876 21.507,267.613 29.044 L 266.810 29.877 266.911 29.230 C 267.052 28.334,267.330 26.738,267.513 25.783 C 267.598 25.344,267.667 24.800,267.667 24.575 L 267.667 24.167 260.828 24.167 C 255.504 24.167,253.975 24.213,253.923 24.375 M324.600 24.458 C 324.511 24.747,324.102 26.972,323.842 28.583 C 323.725 29.301,323.005 33.402,322.481 36.333 C 322.297 37.361,322.081 38.710,321.920 39.833 C 321.861 40.246,321.711 41.071,321.587 41.667 C 321.462 42.262,321.272 43.313,321.164 44.000 C 321.056 44.688,320.868 45.775,320.747 46.417 C 320.626 47.058,320.440 48.146,320.333 48.833 C 320.227 49.521,320.038 50.571,319.915 51.167 C 319.791 51.762,319.605 52.850,319.500 53.583 C 319.395 54.317,319.209 55.404,319.085 56.000 C 318.962 56.596,318.772 57.646,318.664 58.333 C 318.556 59.021,318.366 60.108,318.241 60.750 C 318.117 61.392,317.931 62.479,317.828 63.167 C 317.725 63.854,317.577 64.717,317.499 65.083 C 317.420 65.450,317.237 66.500,317.091 67.417 C 316.801 69.244,316.384 71.565,316.172 72.542 L 316.035 73.167 325.268 73.167 L 334.500 73.167 334.500 72.763 C 334.500 72.541,334.572 71.997,334.660 71.554 C 334.933 70.173,335.295 68.135,335.498 66.833 C 335.605 66.146,335.757 65.283,335.836 64.917 C 335.915 64.550,336.139 63.275,336.333 62.083 C 336.528 60.892,336.751 59.617,336.830 59.250 C 336.909 58.883,337.062 58.021,337.170 57.333 C 337.278 56.646,337.465 55.558,337.586 54.917 C 337.707 54.275,337.893 53.188,337.999 52.500 C 338.106 51.813,338.257 50.950,338.336 50.583 C 338.415 50.217,338.639 48.942,338.833 47.750 C 339.028 46.558,339.251 45.283,339.330 44.917 C 339.409 44.550,339.561 43.688,339.668 43.000 C 339.775 42.313,339.932 41.412,340.019 41.000 C 340.105 40.587,340.211 39.950,340.255 39.583 C 340.299 39.217,340.406 38.542,340.493 38.083 C 340.580 37.625,340.764 36.650,340.902 35.917 C 341.041 35.183,341.350 33.383,341.589 31.917 C 341.827 30.450,342.086 28.950,342.163 28.583 C 342.330 27.788,342.612 26.058,342.752 24.958 L 342.854 24.167 333.771 24.167 C 325.267 24.167,324.683 24.185,324.600 24.458 M351.932 24.375 C 351.836 24.719,351.306 27.769,350.824 30.750 C 350.720 31.392,350.537 32.442,350.417 33.083 C 350.297 33.725,350.114 34.813,350.009 35.500 C 349.904 36.188,349.716 37.275,349.589 37.917 C 349.463 38.558,349.273 39.683,349.166 40.417 C 349.059 41.150,348.871 42.275,348.749 42.917 C 348.627 43.558,348.439 44.646,348.331 45.333 C 348.222 46.021,348.035 47.108,347.914 47.750 C 347.793 48.392,347.607 49.479,347.501 50.167 C 347.394 50.854,347.239 51.728,347.155 52.109 C 347.072 52.490,346.925 53.315,346.829 53.943 C 346.624 55.287,346.443 56.370,346.081 58.417 C 345.935 59.242,345.751 60.329,345.670 60.833 C 345.590 61.337,345.297 63.063,345.017 64.667 C 344.738 66.271,344.395 68.296,344.254 69.167 C 344.114 70.037,343.924 71.112,343.833 71.554 C 343.741 71.997,343.667 72.541,343.667 72.764 L 343.667 73.170 352.790 73.126 L 361.914 73.083 362.199 71.333 C 362.355 70.371,362.603 68.908,362.750 68.083 C 363.023 66.549,363.177 65.638,363.510 63.583 C 363.613 62.942,363.797 61.892,363.918 61.250 C 364.039 60.608,364.225 59.483,364.331 58.750 C 364.437 58.017,364.625 56.929,364.750 56.333 C 364.875 55.737,365.063 54.650,365.169 53.917 C 365.275 53.183,365.462 52.058,365.584 51.417 C 365.706 50.775,365.893 49.688,366.000 49.000 C 367.269 40.814,371.375 34.667,375.574 34.667 C 377.603 34.667,379.746 36.681,380.362 39.167 C 381.021 41.826,381.120 43.707,380.741 46.417 C 380.252 49.918,380.200 50.254,380.030 51.000 C 379.936 51.413,379.775 52.313,379.672 53.000 C 379.570 53.688,379.383 54.775,379.258 55.417 C 379.133 56.058,378.945 57.146,378.841 57.833 C 378.737 58.521,378.549 59.608,378.423 60.250 C 378.297 60.892,378.107 62.017,378.002 62.750 C 377.897 63.483,377.746 64.383,377.667 64.750 C 377.588 65.117,377.404 66.167,377.258 67.083 C 377.112 68.000,376.885 69.350,376.753 70.083 C 376.621 70.817,376.446 71.810,376.364 72.292 L 376.215 73.167 385.441 73.167 L 394.667 73.167 394.667 72.694 C 394.667 72.242,394.739 71.780,395.243 69.000 C 395.368 68.313,395.559 67.188,395.668 66.500 C 395.777 65.813,395.965 64.725,396.086 64.083 C 396.207 63.442,396.393 62.354,396.500 61.667 C 396.607 60.979,396.793 59.892,396.914 59.250 C 397.035 58.608,397.224 57.521,397.333 56.833 C 397.443 56.146,397.633 55.021,397.756 54.333 C 397.879 53.646,398.065 52.521,398.169 51.833 C 398.274 51.146,398.427 50.272,398.511 49.891 C 398.595 49.510,398.742 48.685,398.838 48.057 C 399.087 46.424,399.273 45.333,399.657 43.250 C 401.522 33.141,397.260 25.997,388.417 24.407 C 382.778 23.393,373.711 26.549,369.671 30.931 C 369.001 31.658,368.972 31.672,369.058 31.222 C 369.107 30.963,369.234 30.188,369.339 29.500 C 369.445 28.813,369.631 27.762,369.753 27.167 C 369.875 26.571,370.027 25.652,370.090 25.125 L 370.205 24.167 361.097 24.167 C 353.953 24.167,351.977 24.212,351.932 24.375 "
              stroke="none" fill="#ffffff" fill-rule="evenodd"></path>
        <path id="path1"
              d="M335.250 0.276 C 330.243 1.812,328.015 4.129,327.342 8.500 C 327.236 9.188,327.045 10.313,326.917 11.000 C 326.789 11.688,326.599 12.813,326.496 13.500 C 326.392 14.188,326.239 15.061,326.155 15.442 C 326.072 15.823,325.929 16.655,325.839 17.293 C 325.749 17.930,325.627 18.576,325.569 18.727 C 325.471 18.982,326.166 19.000,334.688 18.960 C 342.742 18.922,343.916 18.885,343.941 18.667 C 344.006 18.102,344.375 15.840,344.581 14.750 C 344.702 14.108,344.889 13.021,344.997 12.333 C 345.105 11.646,345.315 10.558,345.463 9.917 C 346.514 5.356,345.123 1.972,341.588 0.488 C 340.197 -0.096,336.831 -0.209,335.250 0.276 "
              stroke="none" fill="#ffffff" fill-rule="evenodd"></path>
        <path id="path2"
              d="M151.917 0.284 C 149.971 0.874,148.090 1.763,147.337 2.450 C 145.249 4.354,144.476 5.717,144.081 8.187 C 143.943 9.047,143.723 10.313,143.591 11.000 C 143.459 11.688,143.266 12.813,143.162 13.500 C 143.059 14.188,142.906 15.061,142.822 15.442 C 142.739 15.823,142.596 16.655,142.506 17.293 C 142.415 17.930,142.294 18.576,142.236 18.727 C 142.138 18.982,142.833 19.000,151.354 18.960 C 159.409 18.922,160.582 18.885,160.608 18.667 C 160.672 18.102,161.042 15.840,161.247 14.750 C 161.368 14.108,161.557 13.021,161.667 12.333 C 161.776 11.646,161.987 10.521,162.134 9.833 C 163.122 5.232,161.703 1.829,158.227 0.458 C 156.834 -0.091,153.462 -0.184,151.917 0.284 "
              stroke="none" fill="#ffffff" fill-rule="evenodd"></path>
        <path id="path3" d="" stroke="none" fill="#ffffff" fill-rule="evenodd"></path>
        <path id="path4" d="" stroke="none" fill="#ffffff" fill-rule="evenodd"></path>
    </g>
</svg>